<svg width="149" height="46" viewBox="0 0 149 46" fill="none" xmlns="http://www.w3.org/2000/svg">
<path d="M142.947 1.84269C144.2 1.84461 145.401 2.34278 146.287 3.22803C147.173 4.11327 147.672 5.31337 147.673 6.56529V40.2546C147.67 41.5059 147.17 42.7049 146.285 43.5898C145.399 44.4746 144.199 44.9734 142.947 44.9772H5.75068C4.49695 44.9753 3.29502 44.4774 2.40781 43.5923C1.52061 42.7073 1.02037 41.5072 1.01654 40.2546V6.56529C1.02037 5.3127 1.52061 4.11262 2.40781 3.22758C3.29502 2.34255 4.49695 1.8446 5.75068 1.84269H142.983M142.983 0.819824H5.75068C4.22551 0.819824 2.7628 1.42515 1.68434 2.50263C0.605875 3.58012 7.81272e-07 5.0415 7.81272e-07 6.56529V40.2546C-0.000954892 41.0094 0.147139 41.7569 0.435799 42.4544C0.724459 43.1519 1.14801 43.7857 1.68221 44.3194C2.2164 44.8531 2.85073 45.2763 3.54886 45.5647C4.247 45.8531 4.99522 46.001 5.75068 46.0001H142.983C144.508 46.0001 145.971 45.3948 147.049 44.3173C148.128 43.2398 148.734 41.7784 148.734 40.2546V6.56529C148.732 5.04209 148.125 3.58182 147.047 2.50475C145.969 1.42768 144.507 0.821744 142.983 0.819824V0.819824Z" fill="white"/>
<path d="M15.6546 19.2819C13.244 23.4604 14.7761 29.808 17.4263 33.6601C18.7551 35.5825 20.1056 37.2873 21.9499 37.2873H22.0515C22.7827 37.2374 23.4976 37.0477 24.1572 36.7287C24.9293 36.3453 25.7783 36.1419 26.6405 36.1338C27.4653 36.1415 28.2774 36.3375 29.0148 36.7069C29.7176 37.0611 30.4931 37.2473 31.2802 37.251C33.3569 37.2147 34.6348 35.3503 35.7602 33.7036C36.6105 32.4846 37.2828 31.151 37.757 29.7427V29.7427C37.7747 29.6886 37.7719 29.6299 37.7492 29.5778C37.7264 29.5256 37.6853 29.4836 37.6336 29.4598C36.5615 29.0038 35.6465 28.2443 35.0014 27.2749C34.3562 26.3055 34.0092 25.1686 34.0031 24.0045C34.019 22.9751 34.2932 21.9661 34.8006 21.07C35.308 20.174 36.0325 19.4194 36.9075 18.8757V18.8757C36.9592 18.8426 36.9958 18.7905 37.0091 18.7306C37.0308 18.6721 37.0308 18.6077 37.0091 18.5492C36.4108 17.6868 35.6196 16.9756 34.6983 16.4719C33.777 15.9682 32.7509 15.686 31.7014 15.6475C31.5489 15.6475 31.3964 15.6475 31.2367 15.6475C30.0835 15.7162 28.9533 15.9991 27.9039 16.4817C27.3996 16.7219 26.8605 16.881 26.3065 16.9532C25.7342 16.8865 25.1771 16.7247 24.6582 16.4745C23.7449 16.0507 22.7593 15.8046 21.7538 15.749H21.6812C20.458 15.7731 19.2614 16.1106 18.2062 16.7292C17.1509 17.3478 16.2724 18.2268 15.6546 19.2819V19.2819Z" fill="white"/>
<path d="M31.6868 8.79949C30.0288 8.95135 28.4914 9.72976 27.3883 10.9758C26.839 11.5876 26.4189 12.3038 26.1531 13.0816C25.8874 13.8594 25.7815 14.6829 25.8418 15.5025C25.8495 15.5549 25.8743 15.6032 25.9124 15.6399C25.9505 15.6767 25.9997 15.6998 26.0523 15.7057H26.3573C27.1436 15.6692 27.9129 15.4645 28.6132 15.1053C29.3134 14.7461 29.9283 14.2408 30.4162 13.6236C31.5145 12.347 32.0649 10.6893 31.9482 9.00986C31.9409 8.94758 31.9094 8.89065 31.8606 8.85131C31.8117 8.81197 31.7493 8.79336 31.6868 8.79949V8.79949Z" fill="white"/>
<path d="M48.6484 8.70514H51.4439C52.1219 8.69409 52.7924 8.84848 53.3971 9.15492C53.9481 9.44516 54.408 9.88202 54.7259 10.4172C55.0342 10.972 55.196 11.5962 55.196 12.2308C55.196 12.8654 55.0342 13.4895 54.7259 14.0444C54.408 14.5795 53.9481 15.0164 53.3971 15.3066C52.7924 15.6131 52.1219 15.7675 51.4439 15.7564H48.6484V8.70514ZM51.4004 15.2994C51.9988 15.3104 52.5912 15.1786 53.1285 14.9149C53.6173 14.6606 54.0192 14.2666 54.283 13.7832C54.5613 13.3007 54.7019 12.7512 54.6896 12.1945C54.7029 11.6353 54.5622 11.0833 54.283 10.5985C54.0144 10.1322 53.6157 9.75415 53.1357 9.51038C52.5985 9.24666 52.0061 9.11485 51.4076 9.1259H49.1712V15.2558L51.4004 15.2994Z" fill="white"/>
<path d="M57.5431 15.4375C57.1617 15.2162 56.8479 14.8952 56.6355 14.5089C56.4016 14.0878 56.2839 13.6121 56.2942 13.1306C56.2856 12.6493 56.4032 12.1741 56.6355 11.7523C56.8567 11.3548 57.1833 11.026 57.5794 10.802C57.9931 10.5785 58.456 10.4614 58.9263 10.4614C59.3966 10.4614 59.8595 10.5785 60.2732 10.802C60.6693 11.026 60.9959 11.3548 61.2172 11.7523C61.4494 12.1741 61.5671 12.6493 61.5584 13.1306C61.5688 13.6121 61.451 14.0878 61.2172 14.5089C60.9929 14.901 60.6635 15.2226 60.266 15.4375C59.854 15.6662 59.3904 15.7862 58.9191 15.7862C58.4477 15.7862 57.9842 15.6662 57.5722 15.4375H57.5431ZM59.9755 15.0458C60.2839 14.8548 60.5348 14.5841 60.7016 14.2623C60.8971 13.9095 60.9972 13.512 60.9921 13.1088C61.0017 12.7093 60.9066 12.3142 60.7162 11.9627C60.5516 11.6373 60.3003 11.3637 59.9901 11.1719C59.6575 10.9851 59.2824 10.8869 58.9009 10.8869C58.5194 10.8869 58.1443 10.9851 57.8118 11.1719C57.5015 11.3637 57.2503 11.6373 57.0857 11.9627C56.8927 12.3135 56.7951 12.7086 56.8025 13.1088C56.7952 13.5114 56.8928 13.9088 57.0857 14.2623C57.2526 14.5841 57.5035 14.8548 57.8118 15.0458C58.1443 15.2326 58.5194 15.3308 58.9009 15.3308C59.2824 15.3308 59.6575 15.2326 59.9901 15.0458H59.9755Z" fill="white"/>
<path d="M70.4676 10.4751L68.4709 15.7418H67.9917L66.22 11.1715L64.4338 15.7418H63.9691L61.965 10.4751H62.4443L64.2014 15.1759L66.0021 10.4751H66.4305L68.253 15.1687L70.032 10.4751H70.4676Z" fill="white"/>
<path d="M75.7754 11.0122C75.9785 11.2347 76.1346 11.4959 76.2344 11.7801C76.3342 12.0643 76.3756 12.3656 76.3563 12.6662V15.742H75.848V12.7097C75.8819 12.216 75.7202 11.7288 75.3978 11.3531C75.2314 11.194 75.034 11.0708 74.8179 10.9909C74.6019 10.911 74.3717 10.8763 74.1417 10.8888C73.8741 10.8762 73.6068 10.9194 73.3568 11.0156C73.1068 11.1117 72.8795 11.2588 72.6895 11.4474C72.5041 11.6477 72.3609 11.8833 72.2686 12.14C72.1763 12.3968 72.1367 12.6695 72.1522 12.9418V15.742H71.6439V10.4753H72.1304V11.607C72.3092 11.2446 72.5924 10.944 72.9436 10.7438C73.3339 10.5272 73.7753 10.4195 74.2216 10.4318C74.5065 10.4175 74.7913 10.4617 75.0585 10.5615C75.3258 10.6613 75.5697 10.8147 75.7754 11.0122V11.0122Z" fill="white"/>
<path d="M78.4184 8.2627H78.9267V15.742H78.4184V8.2627Z" fill="white"/>
<path d="M81.7802 15.4373C81.3825 15.2154 81.0554 14.886 80.8363 14.487C80.6024 14.0658 80.4847 13.5902 80.495 13.1086C80.4864 12.6273 80.604 12.1521 80.8363 11.7303C81.0575 11.3329 81.3841 11.004 81.7802 10.78C82.1939 10.5565 82.6568 10.4395 83.1271 10.4395C83.5974 10.4395 84.0603 10.5565 84.474 10.78C84.8701 11.004 85.1967 11.3329 85.418 11.7303C85.6502 12.1521 85.7679 12.6273 85.7592 13.1086C85.7696 13.5902 85.6518 14.0658 85.418 14.487C85.1989 14.886 84.8718 15.2154 84.474 15.4373C84.062 15.666 83.5985 15.786 83.1271 15.786C82.6558 15.786 82.1922 15.666 81.7802 15.4373V15.4373ZM84.2126 15.0456C84.521 14.8546 84.7719 14.5839 84.9387 14.2621C85.1291 13.9079 85.2242 13.5105 85.2147 13.1086C85.2243 12.7091 85.1291 12.3139 84.9387 11.9624C84.7742 11.6371 84.5229 11.3635 84.2126 11.1717C83.8801 10.9849 83.505 10.8867 83.1235 10.8867C82.742 10.8867 82.3669 10.9849 82.0344 11.1717C81.7241 11.3635 81.4728 11.6371 81.3083 11.9624C81.1178 12.3139 81.0227 12.7091 81.0323 13.1086C81.0228 13.5105 81.1179 13.9079 81.3083 14.2621C81.4751 14.5839 81.726 14.8546 82.0344 15.0456C82.3669 15.2324 82.742 15.3306 83.1235 15.3306C83.505 15.3306 83.8801 15.2324 84.2126 15.0456V15.0456Z" fill="white"/>
<path d="M90.5878 10.9397C90.7701 11.1327 90.9106 11.3611 91.0005 11.6107C91.0905 11.8604 91.1279 12.1259 91.1106 12.3906V15.7276H90.6241V14.8063C90.4601 15.1152 90.2072 15.3679 89.898 15.5317C89.5385 15.7139 89.1392 15.8037 88.7362 15.7929C88.2399 15.8206 87.7494 15.6744 87.3494 15.3794C87.1921 15.2464 87.0649 15.0814 86.9764 14.8955C86.8878 14.7096 86.8399 14.5069 86.8358 14.3011C86.8317 14.0952 86.8715 13.8908 86.9525 13.7015C87.0335 13.5122 87.154 13.3423 87.3058 13.2031C87.7422 12.8928 88.2754 12.7487 88.8088 12.7968H90.6168V12.3688C90.6297 12.1653 90.6009 11.9613 90.5322 11.7692C90.4636 11.5771 90.3565 11.401 90.2175 11.2517C89.8929 10.9762 89.4734 10.8382 89.0484 10.8672C88.7061 10.8648 88.3662 10.9263 88.0464 11.0485C87.7476 11.159 87.4719 11.3238 87.2332 11.5346L86.9791 11.1719C87.2555 10.9257 87.5791 10.7381 87.9303 10.6205C88.3034 10.4893 88.6964 10.423 89.092 10.4247C89.6389 10.394 90.1759 10.579 90.5878 10.9397V10.9397ZM89.9125 15.0675C90.2412 14.8588 90.4954 14.5515 90.6386 14.1897V13.2031H88.8379C88.4417 13.1702 88.0458 13.2697 87.7124 13.486C87.5975 13.5791 87.5061 13.6978 87.4456 13.8326C87.385 13.9675 87.3571 14.1146 87.3639 14.2622C87.3591 14.4184 87.3914 14.5736 87.4583 14.7148C87.5252 14.8561 87.6248 14.9794 87.7487 15.0747C88.0667 15.2903 88.447 15.3949 88.8306 15.3722C89.2133 15.3783 89.5894 15.2724 89.9125 15.0675V15.0675Z" fill="white"/>
<path d="M97.885 8.2627V15.742H97.3913V14.5087C97.1969 14.9039 96.8916 15.2341 96.5127 15.459C96.1218 15.6828 95.678 15.798 95.2275 15.7927C94.7613 15.7982 94.3023 15.6779 93.8988 15.4445C93.4981 15.2281 93.1661 14.9039 92.9403 14.5087C92.7211 14.0797 92.6067 13.6048 92.6067 13.1231C92.6067 12.6414 92.7211 12.1666 92.9403 11.7375C93.1568 11.339 93.4814 11.0096 93.877 10.7872C94.2831 10.5619 94.7412 10.4468 95.2057 10.4535C95.652 10.4458 96.0916 10.5613 96.4764 10.7872C96.8514 11.0096 97.1579 11.3309 97.3622 11.7158V8.2627H97.885ZM96.3457 15.0455C96.654 14.8546 96.9049 14.5839 97.0718 14.2621C97.2647 13.9086 97.3623 13.5111 97.355 13.1086C97.3624 12.7084 97.2647 12.3132 97.0718 11.9624C96.9072 11.6371 96.656 11.3635 96.3457 11.1717C96.0132 10.9849 95.6381 10.8867 95.2566 10.8867C94.8751 10.8867 94.5 10.9849 94.1674 11.1717C93.8572 11.3635 93.6059 11.6371 93.4413 11.9624C93.2509 12.3139 93.1558 12.7091 93.1654 13.1086C93.1559 13.5105 93.2509 13.9079 93.4413 14.2621C93.6082 14.5839 93.8591 14.8546 94.1674 15.0455C94.5 15.2324 94.8751 15.3305 95.2566 15.3305C95.6381 15.3305 96.0132 15.2324 96.3457 15.0455V15.0455Z" fill="white"/>
<path d="M103.323 15.4375C102.929 15.2215 102.602 14.9 102.38 14.5089C102.143 14.0885 102.023 13.6128 102.031 13.1306C102.025 12.6486 102.145 12.1734 102.38 11.7523C102.601 11.3548 102.927 11.026 103.323 10.802C103.737 10.5785 104.2 10.4614 104.67 10.4614C105.141 10.4614 105.604 10.5785 106.017 10.802C106.412 11.0281 106.738 11.3564 106.961 11.7523C107.19 12.1754 107.308 12.6497 107.302 13.1306C107.309 13.6117 107.192 14.0865 106.961 14.5089C106.74 14.9064 106.413 15.2352 106.017 15.4593C105.605 15.6879 105.142 15.8079 104.67 15.8079C104.199 15.8079 103.736 15.6879 103.323 15.4593V15.4375ZM105.756 15.0458C106.064 14.8548 106.315 14.5841 106.482 14.2623C106.672 13.9082 106.767 13.5107 106.758 13.1088C106.768 12.7093 106.672 12.3142 106.482 11.9627C106.317 11.6373 106.066 11.3637 105.756 11.1719C105.423 10.9851 105.048 10.8869 104.667 10.8869C104.285 10.8869 103.91 10.9851 103.578 11.1719C103.267 11.3637 103.016 11.6373 102.852 11.9627C102.659 12.3135 102.561 12.7086 102.568 13.1088C102.561 13.5114 102.659 13.9088 102.852 14.2623C103.018 14.5841 103.269 14.8548 103.578 15.0458C103.91 15.2326 104.285 15.3308 104.667 15.3308C105.048 15.3308 105.423 15.2326 105.756 15.0458Z" fill="white"/>
<path d="M113.01 11.0119C113.212 11.2349 113.367 11.4963 113.465 11.7805C113.564 12.0647 113.604 12.3659 113.583 12.6659V15.7418H113.075V12.7095C113.111 12.2168 112.952 11.7297 112.632 11.3529C112.464 11.1936 112.266 11.0702 112.048 10.9904C111.831 10.9106 111.6 10.8759 111.369 10.8886C111.101 10.876 110.834 10.9192 110.584 11.0153C110.334 11.1115 110.106 11.2586 109.916 11.4472C109.732 11.6484 109.59 11.8841 109.498 12.1406C109.406 12.3971 109.365 12.6694 109.379 12.9416V15.7418H108.878V10.4751H109.357V11.6068C109.538 11.2459 109.821 10.9458 110.171 10.7435C110.561 10.5277 111.002 10.42 111.449 10.4316C111.734 10.418 112.02 10.4624 112.288 10.5622C112.557 10.6619 112.802 10.8149 113.01 11.0119V11.0119Z" fill="white"/>
<path d="M120.873 15.4083C120.737 15.536 120.573 15.6304 120.394 15.6839C120.2 15.7505 119.996 15.7848 119.791 15.7855C119.598 15.7962 119.405 15.7684 119.223 15.7036C119.041 15.6389 118.874 15.5385 118.731 15.4083C118.602 15.2651 118.503 15.0978 118.44 14.9159C118.376 14.7341 118.349 14.5414 118.361 14.3491V10.8815H117.388V10.4463H118.354V9.3291H118.855V10.4753H120.532V10.8815H118.862V14.2693C118.839 14.5526 118.928 14.8335 119.109 15.0528C119.204 15.1467 119.318 15.2192 119.443 15.2655C119.568 15.3118 119.702 15.3308 119.835 15.3212C120.133 15.3303 120.423 15.2266 120.648 15.031L120.873 15.4083Z" fill="white"/>
<path d="M126.413 11.0121C126.615 11.235 126.77 11.4964 126.869 11.7806C126.968 12.0649 127.008 12.366 126.987 12.6661V15.742H126.486V12.7096C126.52 12.2159 126.358 11.7287 126.036 11.3531C125.869 11.194 125.672 11.0707 125.456 10.9908C125.24 10.911 125.01 10.8762 124.78 10.8888C124.512 10.8766 124.245 10.92 123.995 11.0161C123.745 11.1123 123.518 11.2591 123.327 11.4474C123.143 11.6486 123.001 11.8843 122.909 12.1408C122.817 12.3973 122.776 12.6695 122.79 12.9418V15.742H122.289V8.2627H122.79V11.607C122.968 11.2494 123.252 10.9555 123.603 10.7655C123.99 10.5612 124.422 10.4588 124.86 10.468C125.142 10.4506 125.425 10.4898 125.691 10.5832C125.958 10.6766 126.204 10.8225 126.413 11.0121V11.0121Z" fill="white"/>
<path d="M133.529 13.232H128.998C129.005 13.618 129.113 13.9956 129.31 14.3274C129.503 14.6371 129.777 14.8881 130.102 15.0528C130.45 15.23 130.837 15.3197 131.227 15.314C131.554 15.3195 131.879 15.2552 132.179 15.1254C132.462 15.0075 132.712 14.8205 132.905 14.5813L133.202 14.915C132.969 15.1909 132.672 15.4072 132.338 15.5461C131.982 15.6951 131.599 15.7716 131.213 15.771C130.721 15.7798 130.235 15.6598 129.804 15.4228C129.404 15.2022 129.073 14.876 128.846 14.4797C128.608 14.057 128.488 13.5787 128.497 13.0941C128.491 12.6148 128.603 12.1412 128.824 11.7158C129.031 11.3223 129.342 10.9935 129.724 10.7655C130.119 10.5444 130.564 10.4282 131.017 10.4282C131.469 10.4282 131.914 10.5444 132.309 10.7655C132.687 10.9931 132.996 11.3191 133.202 11.7086C133.424 12.1312 133.536 12.6025 133.529 13.0796V13.232ZM130.029 11.1282C129.724 11.2977 129.473 11.549 129.303 11.8536C129.12 12.1625 129.013 12.5107 128.991 12.8693H133.028C133.019 12.5129 132.916 12.1651 132.73 11.8609C132.558 11.5585 132.307 11.308 132.004 11.1355C131.698 10.965 131.353 10.8775 131.002 10.8816C130.662 10.878 130.327 10.963 130.029 11.1282V11.1282Z" fill="white"/>
<path d="M56.1272 31.3535H50.1006L48.9098 34.1392H46.5863L52.0248 22.0752H54.2031L59.6488 34.1392H57.3616L56.1272 31.3535ZM55.4011 29.5907L53.1212 24.3168L50.8267 29.5907H55.4011Z" fill="white"/>
<path d="M68.5217 25.3903C69.2206 25.7744 69.797 26.3477 70.1845 27.0443C70.5804 27.8076 70.7871 28.6547 70.7871 29.5144C70.7871 30.3741 70.5804 31.2212 70.1845 31.9845C69.7993 32.6848 69.2226 33.261 68.5217 33.6458C67.7845 34.045 66.9567 34.2474 66.1183 34.2334C65.5679 34.2614 65.0181 34.1674 64.5084 33.9579C63.9987 33.7484 63.5417 33.4288 63.1704 33.0219V37.4833H60.9921V24.9405H63.0469V26.1157C63.3988 25.6843 63.8531 25.3476 64.3684 25.1364C64.9187 24.9104 65.5088 24.7969 66.1038 24.8027C66.9471 24.7862 67.7802 24.9886 68.5217 25.3903V25.3903ZM67.7956 31.6C68.0552 31.3196 68.2569 30.9906 68.389 30.6321C68.521 30.2736 68.581 29.8925 68.5653 29.5108C68.595 28.7423 68.3182 27.9935 67.7956 27.4288C67.5431 27.1658 67.2381 26.9589 66.9004 26.8214C66.5626 26.6839 66.1997 26.619 65.8351 26.6308C65.3474 26.6261 64.8669 26.7486 64.441 26.9863C64.0262 27.2264 63.6848 27.575 63.4535 27.9946C63.2194 28.4658 63.0976 28.9847 63.0976 29.5108C63.0976 30.0368 63.2194 30.5558 63.4535 31.027C63.6884 31.4635 64.0438 31.8235 64.4773 32.0643C64.9019 32.3052 65.3833 32.428 65.8714 32.4198C66.2353 32.4312 66.5975 32.3668 66.935 32.2307C67.2725 32.0945 67.578 31.8896 67.8319 31.6291L67.7956 31.6Z" fill="white"/>
<path d="M80.3571 25.3905C81.0707 25.778 81.6579 26.3622 82.0489 27.0735C82.4448 27.8368 82.6515 28.6839 82.6515 29.5436C82.6515 30.4033 82.4448 31.2504 82.0489 32.0137C81.6637 32.714 81.087 33.2902 80.3861 33.675C79.6463 34.0742 78.8162 34.2765 77.9755 34.2626C77.4227 34.288 76.8711 34.1899 76.3611 33.9753C75.8511 33.7607 75.3955 33.435 75.0275 33.0221V37.4835H72.8492V24.9407H74.9041V26.1159C75.2635 25.6931 75.7226 25.3665 76.2401 25.1656C76.7881 24.9403 77.3757 24.8269 77.9682 24.8319C78.799 24.8127 79.6211 25.0049 80.3571 25.3905V25.3905ZM79.631 31.6002C79.8906 31.3197 80.0923 30.9908 80.2243 30.6323C80.3564 30.2737 80.4163 29.8927 80.4006 29.5109C80.4304 28.7425 80.1535 27.9936 79.631 27.4289C79.3777 27.1671 79.0725 26.9608 78.735 26.8234C78.3974 26.686 78.0349 26.6205 77.6705 26.631C77.1828 26.6262 76.7022 26.7488 76.2764 26.9864C75.8616 27.2266 75.5202 27.5752 75.2889 27.9948C75.0504 28.4646 74.926 28.9841 74.926 29.5109C74.926 30.0378 75.0504 30.5572 75.2889 31.0271C75.5184 31.448 75.8602 31.7971 76.2764 32.0355C76.7009 32.2764 77.1824 32.3991 77.6705 32.3909C78.0381 32.4099 78.4056 32.3519 78.7494 32.2207C79.0932 32.0896 79.4059 31.8881 79.6673 31.6292L79.631 31.6002Z" fill="white"/>
<path d="M90.6894 33.9217C89.9374 33.7153 89.2356 33.3573 88.6273 32.8698L89.4042 31.1288C89.9529 31.5491 90.5692 31.8729 91.2267 32.0863C91.9269 32.3308 92.6633 32.4559 93.405 32.4563C94.1031 32.5028 94.8001 32.352 95.4163 32.021C95.618 31.9073 95.7857 31.7417 95.9018 31.5414C96.018 31.3412 96.0785 31.1136 96.0771 30.8821C96.0806 30.7223 96.0493 30.5636 95.9854 30.417C95.9214 30.2705 95.8264 30.1395 95.7067 30.0333C95.4323 29.7933 95.1108 29.6129 94.7628 29.5038C94.3852 29.3804 93.8697 29.2354 93.2162 29.0758C92.4574 28.9068 91.7104 28.6887 90.9799 28.4229C90.4191 28.2026 89.9206 27.849 89.5277 27.3927C89.0986 26.8607 88.8813 26.189 88.9177 25.5066C88.9127 24.8589 89.1024 24.2246 89.4623 23.6858C89.8679 23.1025 90.436 22.6509 91.096 22.3872C91.9493 22.0454 92.8637 21.8825 93.7826 21.9084C94.5176 21.9051 95.2499 21.9978 95.9609 22.1841C96.6166 22.3396 97.2406 22.6071 97.8052 22.9748L97.0791 24.7159C96.5599 24.4056 96.0037 24.1619 95.4236 23.9904C94.878 23.8348 94.3137 23.7543 93.7463 23.7511C93.058 23.7041 92.3712 23.8605 91.7713 24.2008C91.5707 24.3274 91.406 24.5032 91.2929 24.7115C91.1797 24.9198 91.122 25.1536 91.1251 25.3905C91.1206 25.5495 91.1515 25.7074 91.2155 25.8529C91.2796 25.9984 91.3752 26.1279 91.4954 26.2321C91.7721 26.4672 92.093 26.6447 92.4393 26.7544C92.8169 26.8777 93.3324 27.0228 93.9932 27.1824C94.7336 27.3461 95.4615 27.5618 96.1714 27.828C96.7295 28.0497 97.2272 28.4002 97.6236 28.8509C98.0519 29.3749 98.2694 30.0396 98.2336 30.7153C98.2398 31.3609 98.0499 31.9933 97.689 32.5288C97.2742 33.1076 96.7023 33.5557 96.0407 33.8201C95.1873 34.1613 94.273 34.3243 93.3542 34.2989C92.4523 34.3027 91.5547 34.1756 90.6894 33.9217V33.9217Z" fill="white"/>
<path d="M105.829 33.6456C105.554 33.8585 105.241 34.0161 104.906 34.1099C104.533 34.2127 104.147 34.264 103.759 34.2622C102.903 34.3193 102.06 34.0349 101.414 33.4715C101.128 33.1681 100.907 32.8095 100.765 32.4179C100.622 32.0262 100.562 31.6096 100.586 31.1936V26.7684H99.0613V25.0056H100.586V22.9019H102.764V25.0056H105.226V26.7322H102.743V31.0848C102.731 31.2754 102.757 31.4664 102.819 31.6469C102.882 31.8274 102.979 31.9938 103.106 32.1367C103.229 32.2581 103.378 32.3519 103.54 32.4119C103.703 32.4719 103.877 32.4968 104.05 32.4849C104.485 32.5016 104.913 32.3685 105.262 32.1077L105.829 33.6456Z" fill="white"/>
<path d="M108.914 33.6601C108.183 33.2762 107.576 32.6925 107.165 31.9771C106.75 31.2328 106.532 30.3951 106.532 29.5433C106.532 28.6915 106.75 27.8538 107.165 27.1094C107.581 26.4011 108.187 25.8232 108.914 25.4409C109.7 25.0357 110.572 24.8242 111.456 24.8242C112.34 24.8242 113.211 25.0357 113.997 25.4409C114.726 25.8209 115.333 26.3994 115.747 27.1094C116.162 27.8538 116.379 28.6915 116.379 29.5433C116.379 30.3951 116.162 31.2328 115.747 31.9771C115.335 32.6925 114.728 33.2762 113.997 33.6601C113.21 34.0608 112.339 34.2696 111.456 34.2696C110.572 34.2696 109.702 34.0608 108.914 33.6601V33.6601ZM113.402 31.6289C113.663 31.349 113.866 31.0203 113.999 30.6618C114.132 30.3032 114.193 29.9219 114.179 29.5396C114.196 29.1583 114.136 28.7774 114.002 28.4197C113.869 28.062 113.664 27.7348 113.402 27.4576C112.876 26.9467 112.171 26.6608 111.438 26.6608C110.704 26.6608 109.999 26.9467 109.474 27.4576C108.954 28.0235 108.679 28.7722 108.711 29.5396C108.694 29.9209 108.753 30.3016 108.884 30.6601C109.015 31.0186 109.215 31.3478 109.474 31.6289C110.001 32.1365 110.705 32.42 111.438 32.42C112.17 32.42 112.874 32.1365 113.402 31.6289V31.6289Z" fill="white"/>
<path d="M123.749 24.8315V26.8845C123.584 26.8511 123.416 26.8341 123.248 26.8338C122.888 26.8121 122.528 26.8654 122.191 26.9903C121.853 27.1152 121.546 27.3089 121.287 27.5592C121.033 27.8458 120.837 28.1798 120.713 28.5422C120.588 28.9045 120.537 29.2879 120.561 29.6702V34.1317H118.383V24.9404H120.438V26.2824C121.091 25.3176 122.187 24.8315 123.749 24.8315Z" fill="white"/>
<path d="M134.117 30.2289H126.856C126.96 30.8748 127.315 31.4536 127.844 31.8394C128.426 32.2515 129.128 32.4606 129.841 32.4342C130.304 32.4491 130.765 32.3679 131.195 32.1955C131.624 32.0232 132.014 31.7636 132.338 31.4331L133.493 32.7607C133.074 33.2623 132.534 33.6492 131.924 33.8851C131.244 34.1467 130.519 34.2747 129.79 34.2624C128.861 34.2814 127.942 34.0747 127.11 33.6602C126.366 33.2819 125.746 32.6977 125.324 31.9772C124.903 31.2347 124.687 30.3933 124.7 29.5398C124.688 28.6927 124.898 27.8573 125.31 27.1168C125.722 26.4008 126.332 25.8189 127.067 25.441C127.815 25.0459 128.649 24.8394 129.496 24.8394C130.342 24.8394 131.176 25.0459 131.924 25.441C132.622 25.8337 133.196 26.4143 133.58 27.1168C133.99 27.881 134.195 28.7382 134.175 29.605C134.154 29.7429 134.139 29.9533 134.117 30.2289ZM127.742 27.1676C127.264 27.5889 126.955 28.1686 126.871 28.7998H132.099C132.032 28.1739 131.731 27.5963 131.256 27.1821C130.767 26.7612 130.137 26.5387 129.492 26.5582C128.854 26.5403 128.231 26.7572 127.742 27.1676V27.1676Z" fill="white"/>
</svg>
