<svg width="93" height="32" viewBox="0 0 93 32" fill="none" xmlns="http://www.w3.org/2000/svg">
<path d="M50.5138 5.82599H55.4726L47.5163 26.7761H43.9573L36.001 5.82599H40.9599L45.7368 19.8788L50.5138 5.82599Z" fill="white"/>
<path d="M62.1872 5.82599H57.3312V26.7761H62.1872V5.82599Z" fill="white"/>
<path d="M80.7809 9.11047C80.1086 7.94527 79.1279 7.05377 77.8467 6.4438C76.5655 5.83383 75.0312 5.52103 73.2358 5.52103C71.5908 5.52103 70.096 5.78691 68.7436 6.31868C67.3991 6.85045 66.3077 7.59336 65.4773 8.54742L68.7278 11.261C69.3526 10.8074 70.0644 10.4477 70.8474 10.1896C71.6383 9.93158 72.4371 9.80646 73.2596 9.80646C74.5408 9.80646 75.5294 10.1271 76.2254 10.7762C76.9293 11.4252 77.2773 12.3324 77.2773 13.4976V14.3891H71.7885C69.3368 14.3891 67.5019 14.9052 66.2761 15.9453C65.0502 16.9853 64.4412 18.5337 64.4412 20.6061C64.4412 22.7879 65.0502 24.4145 66.2603 25.478C67.4703 26.5494 69.2972 27.0811 71.7332 27.0811C72.698 27.0811 73.5917 26.9717 74.4064 26.7449C75.221 26.5259 75.9169 26.1896 76.5022 25.7439C76.8186 25.5015 77.0795 25.2278 77.2931 24.9228V26.7762H81.8011V13.3177C81.7932 11.6755 81.4531 10.2678 80.7809 9.11047ZM76.1463 22.6862C75.395 23.0225 74.2403 23.1867 72.6901 23.1867C71.4247 23.1867 70.4757 22.9756 69.8509 22.5533C69.2261 22.131 68.9097 21.4819 68.9097 20.6061C68.9097 19.7693 69.1549 19.1515 69.6373 18.7527C70.1198 18.3461 70.8474 18.1505 71.8123 18.1505H77.2852V21.1222C77.2852 21.8182 76.9055 22.3421 76.1463 22.6862Z" fill="white"/>
<path d="M90.0658 20.5748C90.0658 21.0831 90.1924 21.4741 90.4534 21.7478C90.7064 22.0215 91.0782 22.1623 91.5527 22.1623H93V26.7683H90.3506C88.7213 26.7683 87.4559 26.2835 86.5543 25.3216C85.6527 24.3519 85.2019 22.9912 85.2019 21.2395V5.81818H90.0658V20.5748Z" fill="white"/>
<path d="M59.7671 0C61.08 0 62.1477 1.05572 62.1477 2.35386V2.37732C62.1477 3.67546 61.08 4.73118 59.7671 4.73118C58.4542 4.73118 57.3865 3.67546 57.3865 2.37732V2.35386C57.3865 1.05572 58.4542 0 59.7671 0Z" fill="white"/>
<path d="M26.2336 5.84946L16.9012 20.6295L7.57663 5.84946H0.40332L16.9012 32L33.4069 5.84946H26.2336Z" fill="white"/>
<path d="M0 26.7918H7.40267L9.07143 24.1408L5.3701 18.2757L0 26.7918ZM24.7309 24.1408L26.3997 26.7918H33.8024L28.4323 18.2757L24.7309 24.1408ZM11.8316 8.03128L16.9012 16.0626L21.9707 8.03128L16.9012 0L11.8316 8.03128Z" fill="white"/>
</svg>
