<svg width="29" height="29" viewBox="0 0 29 29" fill="none" xmlns="http://www.w3.org/2000/svg">
<circle cx="14.5" cy="14.5" r="14.5" fill="#B4D902"/>
<path d="M13.819 23.253C12.6997 23.253 11.6723 23.0613 10.737 22.678C9.80167 22.2793 9.012 21.712 8.368 20.976L10.691 18.653C10.9823 19.0823 11.404 19.435 11.956 19.711C12.5233 19.9717 13.1213 20.102 13.75 20.102C14.3173 20.102 14.808 20.0023 15.222 19.803C15.636 19.6037 15.958 19.32 16.188 18.952C16.4333 18.584 16.556 18.147 16.556 17.641C16.556 17.135 16.4333 16.7057 16.188 16.353C15.958 15.985 15.613 15.7013 15.153 15.502C14.7083 15.3027 14.1717 15.203 13.543 15.203C13.2517 15.203 12.945 15.226 12.623 15.272C12.3163 15.3027 12.0557 15.3563 11.841 15.433L13.428 13.432C13.8573 13.3093 14.2637 13.2097 14.647 13.133C15.0457 13.041 15.4137 12.995 15.751 12.995C16.579 12.995 17.3227 13.1943 17.982 13.593C18.6413 13.9763 19.1627 14.5283 19.546 15.249C19.9447 15.9543 20.144 16.7977 20.144 17.779C20.144 18.8523 19.8757 19.803 19.339 20.631C18.8177 21.459 18.0817 22.103 17.131 22.563C16.1957 23.023 15.0917 23.253 13.819 23.253ZM11.841 15.433V13.432L15.797 8.786L19.845 8.763L15.728 13.455L11.841 15.433ZM9.38 9.821V6.762H19.845V8.763L17.016 9.821H9.38Z" fill="#8622CC"/>
</svg>
