<svg width="29" height="29" viewBox="0 0 29 29" fill="none" xmlns="http://www.w3.org/2000/svg">
<circle cx="14.5" cy="14.5" r="14.5" fill="#B4D902"/>
<path d="M8.56079 19.976L14.7938 13.536C15.1771 13.1527 15.4838 12.8 15.7138 12.478C15.9438 12.156 16.1125 11.857 16.2198 11.581C16.3271 11.2897 16.3808 10.9983 16.3808 10.707C16.3808 10.0783 16.1738 9.58767 15.7598 9.235C15.3611 8.867 14.8321 8.683 14.1728 8.683C13.5288 8.683 12.9461 8.85933 12.4248 9.212C11.9188 9.54933 11.4281 10.109 10.9528 10.891L8.53779 8.798C9.18179 7.70933 10.0021 6.889 10.9988 6.337C11.9955 5.785 13.1378 5.509 14.4258 5.509C15.5451 5.509 16.5111 5.716 17.3238 6.13C18.1518 6.544 18.7881 7.13433 19.2328 7.901C19.6928 8.66767 19.9228 9.56467 19.9228 10.592C19.9228 11.236 19.8385 11.834 19.6698 12.386C19.5011 12.9227 19.2251 13.4593 18.8418 13.996C18.4738 14.5173 17.9755 15.0923 17.3468 15.721L13.0228 20.022L8.56079 19.976ZM8.56079 22V19.976L11.6198 18.918H20.2448V22H8.56079Z" fill="#8622CC"/>
</svg>
