<svg width="149" height="46" viewBox="0 0 149 46" fill="none" xmlns="http://www.w3.org/2000/svg">
<path d="M142.958 1.01578C144.213 1.0177 145.416 1.51664 146.303 2.40324C147.191 3.28984 147.69 4.49179 147.692 5.74563V39.435C147.688 40.6875 147.188 41.8876 146.301 42.7727C145.414 43.6577 144.212 44.1556 142.958 44.1576H5.76208C4.50902 44.1556 3.30784 43.6575 2.42179 42.7722C1.53574 41.887 1.03712 40.6869 1.0352 39.435V5.74563C1.03711 4.49304 1.5355 3.29219 2.42135 2.40579C3.30719 1.5194 4.50835 1.01961 5.76208 1.01578H142.994M142.994 0.000165133H5.76208C4.2369 0.000165133 2.7742 0.605489 1.69574 1.68297C0.617274 2.76046 0.0113983 4.22184 0.0113983 5.74563V39.435C0.0133197 40.9582 0.619807 42.4184 1.69785 43.4955C2.7759 44.5726 4.23749 45.1785 5.76208 45.1804H142.994C144.519 45.1804 145.982 44.5751 147.061 43.4976C148.139 42.4201 148.745 40.9587 148.745 39.435V5.74563C148.746 4.98779 148.597 4.23726 148.306 3.53738C148.015 2.8375 147.588 2.20212 147.05 1.66794C146.512 1.13375 145.873 0.711339 145.171 0.425087C144.469 0.138836 143.716 -0.00558397 142.958 0.000165133H142.994Z" fill="white"/>
<path d="M46.2565 12.9346H42.154L41.2609 14.9223H40.7018L43.9547 7.86377H44.4703L47.7232 14.9223H47.1641L46.2565 12.9346ZM46.0677 12.4993L44.2089 8.42236L42.3573 12.4993H46.0677Z" fill="white"/>
<path d="M52.8059 9.65576L50.4243 14.9224H49.9087L47.5344 9.65576H48.0717L50.1701 14.3639L52.2903 9.65576H52.8059Z" fill="white"/>
<path d="M57.0245 10.1128C57.2084 10.3049 57.3505 10.533 57.4418 10.7827C57.533 11.0325 57.5714 11.2984 57.5545 11.5637V14.9007H57.0898V13.9866C56.9248 14.2948 56.6721 14.5472 56.3637 14.7121C56.0064 14.8923 55.6093 14.9796 55.2092 14.966C54.7108 14.9918 54.2187 14.8458 53.8151 14.5525C53.6583 14.4189 53.5317 14.2535 53.4438 14.0673C53.3559 13.8811 53.3086 13.6784 53.3052 13.4725C53.3018 13.2667 53.3422 13.0624 53.4239 12.8734C53.5055 12.6844 53.6265 12.5149 53.7788 12.3762C54.2117 12.0638 54.7425 11.9171 55.2746 11.9627H57.0826V11.5419C57.0985 11.3381 57.0712 11.1332 57.0024 10.9407C56.9336 10.7482 56.8248 10.5723 56.6832 10.4247C56.5248 10.2868 56.3405 10.1818 56.141 10.1158C55.9416 10.0498 55.731 10.0241 55.5215 10.0403C55.1767 10.0373 54.8344 10.0989 54.5122 10.2216C54.2138 10.3295 53.938 10.4919 53.6989 10.7004L53.4521 10.3377C53.7281 10.0964 54.0488 9.91152 54.396 9.79361C54.7693 9.66293 55.1622 9.59669 55.5578 9.59774C56.0949 9.57398 56.6204 9.75852 57.0245 10.1128V10.1128ZM56.3565 14.2478C56.672 14.0338 56.9131 13.7271 57.0463 13.37V12.3762H55.2528C54.8565 12.3421 54.4603 12.4417 54.1274 12.6591C54.0146 12.7598 53.9251 12.8837 53.8649 13.0222C53.8047 13.1608 53.7754 13.3108 53.7788 13.4618C53.7823 13.6128 53.8185 13.7613 53.8849 13.897C53.9513 14.0327 54.0464 14.1524 54.1637 14.2478C54.4774 14.4665 54.8566 14.5714 55.2383 14.5452C55.6345 14.5587 56.026 14.4552 56.3637 14.2478H56.3565Z" fill="white"/>
<path d="M59.5876 8.26294C59.513 8.1847 59.4714 8.0808 59.4714 7.97276C59.4714 7.86472 59.513 7.76082 59.5876 7.68259C59.6256 7.64213 59.6719 7.61022 59.7232 7.58896C59.7745 7.56769 59.8298 7.55757 59.8853 7.55926C59.9391 7.55766 59.9926 7.56714 60.0426 7.58711C60.0926 7.60708 60.1379 7.63711 60.1757 7.67533C60.2153 7.71252 60.2467 7.75751 60.268 7.80747C60.2892 7.85742 60.2998 7.91124 60.2992 7.96551C60.299 8.01965 60.288 8.07322 60.2668 8.12305C60.2456 8.17288 60.2146 8.21798 60.1757 8.25568C60.1385 8.29522 60.0935 8.3266 60.0435 8.34783C59.9935 8.36906 59.9396 8.37968 59.8853 8.37901C59.7752 8.37799 59.6693 8.3367 59.5876 8.26294V8.26294ZM59.6312 9.65578H60.1394V14.9225H59.6312V9.65578Z" fill="white"/>
<path d="M62.2669 7.43555H62.7679V14.9221H62.2669V7.43555Z" fill="white"/>
<path d="M68.1846 10.1125C68.3658 10.3062 68.5056 10.5347 68.5955 10.7842C68.6854 11.0336 68.7234 11.2987 68.7074 11.5634V14.9004H68.2209V13.9863C68.0548 14.2937 67.8024 14.5458 67.4948 14.7118C67.1346 14.8914 66.7354 14.9787 66.333 14.9657C65.8365 14.9946 65.3456 14.8483 64.9462 14.5522C64.7889 14.4191 64.6618 14.2542 64.5732 14.0683C64.4846 13.8823 64.4367 13.6797 64.4326 13.4739C64.4285 13.268 64.4683 13.0636 64.5493 12.8743C64.6304 12.685 64.7508 12.5151 64.9026 12.3759C65.3378 12.0624 65.8712 11.9156 66.4056 11.9624H68.2064V11.5416C68.2223 11.3378 68.195 11.1329 68.1262 10.9404C68.0574 10.7479 67.9486 10.572 67.807 10.4244C67.6486 10.2865 67.4643 10.1815 67.2648 10.1155C67.0654 10.0495 66.8548 10.0238 66.6453 10.04C66.3029 10.0376 65.963 10.0991 65.6432 10.2213C65.344 10.3275 65.068 10.49 64.83 10.7001L64.5759 10.3374C64.8546 10.096 65.1776 9.91122 65.5271 9.79331C65.8979 9.66261 66.2884 9.59636 66.6816 9.59744C67.2306 9.56721 67.7697 9.75197 68.1846 10.1125V10.1125ZM67.5093 14.2475C67.8249 14.0335 68.0659 13.7268 68.1991 13.3697V12.3759H66.4056C66.0095 12.3429 65.6136 12.4425 65.2802 12.6588C65.1657 12.7522 65.0746 12.871 65.0141 13.0058C64.9536 13.1405 64.9254 13.2875 64.9317 13.435C64.9256 13.5914 64.9574 13.7469 65.0244 13.8884C65.0914 14.0298 65.1916 14.153 65.3165 14.2475C65.633 14.4662 66.0145 14.5711 66.3984 14.5449C66.7898 14.5559 67.1759 14.4526 67.5093 14.2475V14.2475Z" fill="white"/>
<path d="M74.763 9.95282C75.1556 10.1693 75.48 10.4908 75.6997 10.8814C75.9281 11.307 76.0432 11.7841 76.0337 12.267C76.0439 12.7476 75.9288 13.2226 75.6997 13.6453C75.4832 14.0438 75.1585 14.3733 74.763 14.5956C74.3589 14.8268 73.8998 14.9446 73.4343 14.9366C72.9858 14.9441 72.5438 14.8287 72.1563 14.6029C71.7773 14.379 71.4701 14.0519 71.2705 13.6598V14.9003H70.784V7.43555H71.2923V10.8814C71.492 10.4993 71.7968 10.1822 72.1708 9.96732C72.5553 9.74792 72.9915 9.63521 73.4343 9.64088C73.8968 9.6275 74.3548 9.73503 74.763 9.95282V9.95282ZM74.5161 14.2256C74.8264 14.0339 75.0777 13.7602 75.2422 13.4349C75.4352 13.0841 75.5328 12.6889 75.5254 12.2887C75.5317 11.8863 75.4342 11.4891 75.2422 11.1353C75.0754 10.8135 74.8245 10.5428 74.5161 10.3518C74.182 10.1626 73.8038 10.065 73.4197 10.0689C73.0401 10.0633 72.6661 10.1611 72.3379 10.3518C72.0295 10.5428 71.7786 10.8135 71.6118 11.1353C71.4198 11.4891 71.3223 11.8863 71.3286 12.2887C71.3212 12.6889 71.4188 13.0841 71.6118 13.4349C71.7763 13.7602 72.0276 14.0339 72.3379 14.2256C72.6661 14.4163 73.0401 14.5141 73.4197 14.5086C73.8038 14.5125 74.182 14.4149 74.5161 14.2256V14.2256Z" fill="white"/>
<path d="M77.6021 7.43555H78.1031V14.9221H77.6021V7.43555Z" fill="white"/>
<path d="M84.6815 12.4125H80.1434C80.1517 12.797 80.262 13.1725 80.4629 13.5006C80.6521 13.8128 80.9267 14.0645 81.2543 14.2261C81.6023 14.4041 81.9888 14.4938 82.3797 14.4872C82.7063 14.4892 83.0299 14.425 83.3309 14.2986C83.6155 14.1787 83.8652 13.9891 84.057 13.7473L84.3475 14.081C84.1151 14.3601 83.8187 14.5791 83.4834 14.7194C83.1269 14.8672 82.744 14.9413 82.358 14.937C81.8691 14.9474 81.3859 14.8299 80.9566 14.596C80.5527 14.3749 80.2184 14.0458 79.9909 13.6457C79.7538 13.2255 79.6335 12.7496 79.6424 12.2674C79.6356 11.788 79.7479 11.3145 79.9691 10.889C80.135 10.5975 80.3568 10.3415 80.6217 10.1356C80.8867 9.92972 81.1896 9.77798 81.5132 9.68906C81.8369 9.60014 82.1749 9.57578 82.5079 9.61737C82.841 9.65897 83.1626 9.7657 83.4544 9.93147C83.836 10.1566 84.1477 10.483 84.3547 10.8745C84.5765 11.2972 84.6888 11.7685 84.6815 12.2456V12.4125ZM81.1744 10.3087C80.8678 10.476 80.6158 10.7278 80.4483 11.0341C80.2714 11.3428 80.1671 11.6876 80.1434 12.0425H84.1805C84.163 11.6865 84.0583 11.3402 83.8755 11.0341C83.6971 10.7362 83.4477 10.4869 83.1494 10.3087C82.8398 10.1484 82.4961 10.0648 82.1474 10.0648C81.7987 10.0648 81.455 10.1484 81.1454 10.3087H81.1744Z" fill="white"/>
<path d="M89.5681 14.6175C89.1704 14.3956 88.8432 14.0662 88.6242 13.6671C88.4003 13.2421 88.2834 12.7691 88.2834 12.2888C88.2834 11.8085 88.4003 11.3355 88.6242 10.9105C88.8432 10.5114 89.1704 10.1821 89.5681 9.96015C89.9818 9.73666 90.4447 9.61963 90.915 9.61963C91.3853 9.61963 91.8482 9.73666 92.2619 9.96015C92.6597 10.1821 92.9868 10.5114 93.2058 10.9105C93.4297 11.3355 93.5467 11.8085 93.5467 12.2888C93.5467 12.7691 93.4297 13.2421 93.2058 13.6671C92.9868 14.0662 92.6597 14.3956 92.2619 14.6175C91.8482 14.841 91.3853 14.958 90.915 14.958C90.4447 14.958 89.9818 14.841 89.5681 14.6175V14.6175ZM92.0005 14.2257C92.3108 14.0339 92.562 13.7603 92.7266 13.435C92.917 13.0835 93.0121 12.6884 93.0025 12.2888C93.0114 11.887 92.9164 11.4897 92.7266 11.1354C92.5597 10.8136 92.3088 10.5428 92.0005 10.3519C91.668 10.165 91.2929 10.0669 90.9114 10.0669C90.5299 10.0669 90.1548 10.165 89.8222 10.3519C89.5139 10.5428 89.263 10.8136 89.0961 11.1354C88.9042 11.4892 88.8067 11.8864 88.813 12.2888C88.8056 12.689 88.9032 13.0842 89.0961 13.435C89.2607 13.7603 89.512 14.0339 89.8222 14.2257C90.1548 14.4126 90.5299 14.5107 90.9114 14.5107C91.2929 14.5107 91.668 14.4126 92.0005 14.2257V14.2257Z" fill="white"/>
<path d="M99.2542 10.1926C99.4563 10.4155 99.6113 10.6769 99.7099 10.9611C99.8085 11.2454 99.8486 11.5465 99.8278 11.8466V14.9225H99.3268V11.8829C99.3596 11.3915 99.1979 10.907 98.8766 10.5336C98.7109 10.3734 98.5137 10.2494 98.2974 10.1695C98.0812 10.0895 97.8507 10.0554 97.6205 10.0693C97.353 10.0571 97.0858 10.1005 96.8358 10.1966C96.5859 10.2928 96.3586 10.4396 96.1683 10.6279C95.8067 11.023 95.6139 11.5436 95.631 12.0787V14.8862H95.13V9.65578H95.5729V10.7947C95.7471 10.4315 96.0283 10.1303 96.3789 9.93144C96.7694 9.71558 97.2106 9.60788 97.6568 9.61951C97.9482 9.59995 98.2405 9.64077 98.5154 9.73939C98.7903 9.838 99.0418 9.9923 99.2542 10.1926V10.1926Z" fill="white"/>
<path d="M107.118 14.5884C106.98 14.7136 106.816 14.8076 106.639 14.8641C106.444 14.9284 106.241 14.9602 106.036 14.9584C105.659 14.9704 105.291 14.8351 105.012 14.5812C104.884 14.4389 104.785 14.2727 104.722 14.0922C104.658 13.9117 104.631 13.7204 104.642 13.5293V10.0907H103.633V9.65547H104.606V8.50928H105.107V9.65547H106.784V10.0907H105.107V13.4785C105.09 13.7611 105.178 14.04 105.353 14.262C105.45 14.354 105.564 14.4253 105.689 14.4715C105.814 14.5176 105.947 14.5377 106.08 14.5304C106.381 14.5386 106.674 14.4323 106.9 14.233L107.118 14.5884Z" fill="white"/>
<path d="M112.658 10.1922C112.86 10.4151 113.015 10.6765 113.114 10.9608C113.212 11.245 113.252 11.5461 113.232 11.8462V14.9221H112.731V11.8825C112.763 11.3911 112.602 10.9066 112.28 10.5332C112.115 10.3726 111.918 10.2484 111.701 10.1684C111.485 10.0885 111.254 10.0546 111.024 10.0689C110.757 10.0572 110.49 10.1007 110.24 10.1968C109.99 10.293 109.763 10.4396 109.572 10.6275C109.213 11.0237 109.023 11.5442 109.042 12.0783V14.8858H108.534V7.43555H109.042V10.7581C109.217 10.401 109.499 10.107 109.848 9.91654C110.236 9.70822 110.671 9.60563 111.111 9.61911C111.394 9.60614 111.677 9.65019 111.943 9.74865C112.209 9.8471 112.452 9.99795 112.658 10.1922V10.1922Z" fill="white"/>
<path d="M119.774 12.4122H115.243C115.249 12.7961 115.357 13.1715 115.555 13.5004C115.746 13.8111 116.02 14.0623 116.347 14.2258C116.695 14.403 117.081 14.4926 117.472 14.487C117.801 14.4889 118.127 14.4248 118.43 14.2984C118.717 14.1813 118.967 13.9912 119.157 13.747L119.454 14.0807C119.22 14.3583 118.924 14.5769 118.59 14.7191C118.233 14.8656 117.851 14.9396 117.465 14.9367C116.976 14.9482 116.492 14.8306 116.063 14.5958C115.658 14.3768 115.323 14.0473 115.098 13.6455C114.861 13.2253 114.74 12.7494 114.749 12.2671C114.742 11.7878 114.855 11.3142 115.076 10.8888C115.283 10.4953 115.594 10.1665 115.976 9.93848C116.367 9.70789 116.815 9.58988 117.269 9.59752C117.722 9.58991 118.168 9.70524 118.561 9.93122C118.941 10.1568 119.25 10.4833 119.454 10.8743C119.682 11.295 119.797 11.7672 119.788 12.2454L119.774 12.4122ZM116.274 10.3085C115.966 10.4733 115.713 10.7258 115.548 11.0339C115.365 11.3406 115.258 11.6862 115.236 12.0422H119.273C119.265 11.6946 119.167 11.355 118.989 11.0563C118.811 10.7576 118.558 10.51 118.256 10.3375C117.949 10.1696 117.604 10.0846 117.254 10.0908C116.914 10.0781 116.577 10.1531 116.274 10.3085V10.3085Z" fill="white"/>
<path d="M48.747 27.2911H50.8163V31.9919C50.1821 32.4862 49.4639 32.8621 48.6962 33.1019C47.8889 33.3601 47.046 33.4898 46.1984 33.4863C45.0653 33.5035 43.9463 33.234 42.9455 32.7029C42.0018 32.2003 41.2154 31.4472 40.6728 30.5266C40.1303 29.5776 39.845 28.5036 39.845 27.4108C39.845 26.318 40.1303 25.244 40.6728 24.295C41.2147 23.3713 42.0044 22.6174 42.9527 22.1187C43.964 21.5875 45.0923 21.3182 46.2347 21.3353C47.1556 21.3216 48.0705 21.4866 48.9285 21.8213C49.7143 22.1362 50.4137 22.6335 50.9688 23.2722L49.5893 24.665C49.1682 24.2298 48.6623 23.8855 48.1028 23.6534C47.5433 23.4213 46.9421 23.3064 46.3363 23.3157C45.5636 23.3007 44.7995 23.4803 44.1145 23.838C43.4847 24.1729 42.9596 24.675 42.597 25.2889C42.2233 25.9524 42.0352 26.7041 42.0524 27.4652C42.0412 28.2095 42.2292 28.9433 42.597 29.5907C42.961 30.2035 43.4858 30.7052 44.1145 31.0416C44.7815 31.4075 45.5319 31.5949 46.2928 31.5857C47.1436 31.604 47.9837 31.3935 48.7252 30.9763L48.747 27.2911Z" fill="white"/>
<path d="M55.0858 32.8478C54.3695 32.4694 53.7754 31.8959 53.3722 31.1938C52.9573 30.4674 52.7442 29.6434 52.755 28.8071C52.7433 27.9753 52.9565 27.1557 53.3722 26.4349C53.7816 25.7432 54.3747 25.1783 55.0858 24.8027C55.8419 24.3974 56.6894 24.1926 57.5473 24.2078C58.4097 24.193 59.2618 24.3977 60.0233 24.8027C60.7343 25.1783 61.3274 25.7432 61.7368 26.4349C62.1525 27.1557 62.3658 27.9753 62.354 28.8071C62.3648 29.6434 62.1517 30.4674 61.7368 31.1938C61.3258 31.9 60.7212 32.4739 59.9942 32.8478C59.231 33.2473 58.3797 33.4493 57.5182 33.4354C56.6711 33.4451 55.8349 33.2431 55.0858 32.8478V32.8478ZM59.4424 30.8601C59.9333 30.2942 60.2036 29.5705 60.2036 28.8216C60.2036 28.0727 59.9333 27.349 59.4424 26.7831C58.9288 26.285 58.2412 26.0064 57.5255 26.0064C56.8097 26.0064 56.1221 26.285 55.6086 26.7831C55.126 27.3529 54.8611 28.0752 54.8611 28.8216C54.8611 29.568 55.126 30.2903 55.6086 30.8601C56.1221 31.3582 56.8097 31.6368 57.5255 31.6368C58.2412 31.6368 58.9288 31.3582 59.4424 30.8601V30.8601Z" fill="white"/>
<path d="M65.9554 32.8479C65.2414 32.4691 64.6497 31.8956 64.2491 31.1939C63.8312 30.4687 63.6179 29.6439 63.632 28.8072C63.6169 27.975 63.8304 27.1546 64.2491 26.4351C64.6542 25.7424 65.2453 25.177 65.9554 24.8028C66.7208 24.4119 67.5682 24.208 68.4278 24.208C69.2874 24.208 70.1348 24.4119 70.9002 24.8028C71.6104 25.177 72.2015 25.7424 72.6065 26.4351C73.0253 27.1546 73.2387 27.975 73.2237 28.8072C73.2377 29.6439 73.0244 30.4687 72.6065 31.1939C72.202 31.8976 71.605 32.4713 70.8856 32.8479C70.1189 33.2344 69.2721 33.4357 68.4133 33.4357C67.5545 33.4357 66.7077 33.2344 65.9409 32.8479H65.9554ZM70.312 30.8602C70.803 30.2944 71.0733 29.5706 71.0733 28.8217C71.0733 28.0729 70.803 27.3491 70.312 26.7833C70.0624 26.5281 69.7625 26.3274 69.4313 26.1938C69.1002 26.0602 68.7449 25.9966 68.3879 26.007C68.0416 26.0039 67.6982 26.071 67.3787 26.2045C67.0592 26.3379 66.7701 26.5348 66.5291 26.7833C66.0465 27.3531 65.7816 28.0753 65.7816 28.8217C65.7816 29.5682 66.0465 30.2904 66.5291 30.8602C66.776 31.115 67.0733 31.3156 67.4021 31.4492C67.7309 31.5829 68.0839 31.6466 68.4387 31.6364C68.7921 31.6439 69.1432 31.5788 69.4704 31.4453C69.7976 31.3118 70.0939 31.1127 70.3411 30.8602H70.312Z" fill="white"/>
<path d="M84.1805 24.324V31.9556C84.1805 35.1282 82.5637 36.7121 79.3301 36.7072C78.4985 36.7125 77.6701 36.6026 76.8687 36.3808C76.1681 36.1974 75.513 35.8714 74.9445 35.4232L75.8885 33.8417C76.331 34.1939 76.836 34.4597 77.3769 34.6252C77.9673 34.8202 78.5849 34.9206 79.2067 34.9226C79.9931 34.9908 80.775 34.7486 81.385 34.248C81.6388 33.9727 81.8341 33.6488 81.9589 33.2959C82.0837 32.943 82.1355 32.5685 82.1111 32.195V31.7235C81.7408 32.1336 81.2778 32.4495 80.7606 32.6448C80.2148 32.8474 79.6364 32.9482 79.0542 32.9422C78.2492 32.9534 77.4537 32.7665 76.738 32.3981C76.0613 32.0466 75.4957 31.5141 75.1043 30.8602C74.7001 30.17 74.4941 29.3818 74.5089 28.5823C74.4915 27.7871 74.6978 27.0029 75.1043 26.3189C75.4942 25.6674 76.0605 25.1393 76.738 24.7955C77.4537 24.4271 78.2492 24.2403 79.0542 24.2515C79.6621 24.2442 80.2658 24.3525 80.8332 24.5706C81.356 24.7796 81.8178 25.1163 82.1764 25.55V24.324H84.1805ZM81.3414 30.4177C81.5958 30.1801 81.7962 29.8907 81.929 29.569C82.0617 29.2474 82.1239 28.901 82.1111 28.5533C82.124 28.2099 82.0618 27.8678 81.9289 27.5508C81.796 27.2338 81.5955 26.9496 81.3414 26.7179C80.7875 26.2584 80.0901 26.0068 79.3701 26.0068C78.65 26.0068 77.9527 26.2584 77.3987 26.7179C77.1447 26.9496 76.9442 27.2338 76.8113 27.5508C76.6784 27.8678 76.6162 28.2099 76.6291 28.5533C76.6191 28.9026 76.6846 29.25 76.8212 29.5718C76.9577 29.8935 77.1622 30.182 77.4205 30.4177C77.9745 30.8772 78.6718 31.1288 79.3919 31.1288C80.1119 31.1288 80.8093 30.8772 81.3632 30.4177H81.3414Z" fill="white"/>
<path d="M86.9469 20.8198H89.0381V33.3191H86.9324L86.9469 20.8198Z" fill="white"/>
<path d="M100.249 29.4962H93.1841C93.2895 30.128 93.6388 30.6933 94.157 31.0704C94.7236 31.4736 95.408 31.6777 96.103 31.6508C96.5557 31.6641 97.0063 31.5848 97.4271 31.4176C97.8479 31.2504 98.2301 30.999 98.5499 30.6787L99.6754 31.97C99.2653 32.4583 98.7383 32.8352 98.1433 33.0654C97.3838 33.3425 96.5766 33.466 95.7689 33.4286C94.9611 33.3913 94.1689 33.1938 93.4382 32.8477C92.7099 32.4825 92.1042 31.9127 91.6956 31.2082C91.2777 30.483 91.0644 29.6582 91.0784 28.8216C91.0649 27.9946 91.2703 27.1788 91.6738 26.4566C92.0638 25.7656 92.6398 25.1976 93.3366 24.8171C94.0683 24.4309 94.8833 24.229 95.7109 24.229C96.5385 24.229 97.3535 24.4309 98.0852 24.8171C98.7678 25.2016 99.3288 25.7696 99.7044 26.4566C100.103 27.2038 100.303 28.0405 100.285 28.8868C100.285 29.0174 100.271 29.2278 100.249 29.4962ZM94.0191 26.5074C93.55 26.9146 93.2476 27.4802 93.1696 28.0961H98.2522C98.1846 27.4787 97.8843 26.9101 97.4123 26.5059C96.9403 26.1017 96.332 25.8922 95.7109 25.9198C95.0943 25.9041 94.493 26.1129 94.0191 26.5074V26.5074Z" fill="white"/>
<path d="M114.691 22.0314C115.402 22.3333 116.008 22.838 116.434 23.4823C116.833 24.1608 117.043 24.9334 117.043 25.7203C117.043 26.5072 116.833 27.2798 116.434 27.9582C116.011 28.6046 115.404 29.1099 114.691 29.4091C113.846 29.7654 112.936 29.9385 112.019 29.9169H109.369V33.3192H107.19V21.5309H112.048C112.954 21.5145 113.854 21.6849 114.691 22.0314V22.0314ZM114.088 27.4577C114.323 27.2336 114.509 26.9644 114.636 26.6664C114.763 26.3685 114.829 26.0479 114.829 25.7239C114.829 25.3999 114.763 25.0793 114.636 24.7813C114.509 24.4834 114.323 24.2142 114.088 23.9901C113.455 23.5406 112.685 23.3252 111.91 23.3807H109.369V28.0671H111.932C112.699 28.1175 113.461 27.9023 114.088 27.4577V27.4577Z" fill="white"/>
<path d="M119.2 20.8198H121.306V33.3191H119.2V20.8198Z" fill="white"/>
<path d="M130.556 25.18C130.926 25.5548 131.212 26.0045 131.394 26.4988C131.575 26.993 131.649 27.5205 131.609 28.0455V33.3194H129.62V32.224C129.348 32.6257 128.964 32.9386 128.516 33.1236C127.968 33.3459 127.379 33.4521 126.788 33.4355C126.18 33.4508 125.575 33.3345 125.016 33.0946C124.541 32.8905 124.133 32.556 123.84 32.1297C123.569 31.7187 123.427 31.2362 123.433 30.7441C123.42 30.3722 123.494 30.0022 123.65 29.6644C123.807 29.3265 124.041 29.0304 124.334 28.8C125.171 28.2444 126.171 27.9887 127.173 28.0745H129.496V27.9294C129.514 27.6615 129.474 27.3928 129.377 27.1422C129.281 26.8916 129.13 26.6651 128.937 26.4786C128.458 26.112 127.861 25.9339 127.26 25.978C126.752 25.9795 126.248 26.0578 125.764 26.2102C125.314 26.3481 124.894 26.5723 124.53 26.8703L123.702 25.3396C124.211 24.9588 124.787 24.6781 125.401 24.5126C126.088 24.3149 126.799 24.2171 127.514 24.2225C128.613 24.1459 129.7 24.4881 130.556 25.18V25.18ZM128.632 31.5421C129.034 31.309 129.34 30.9416 129.496 30.5048V29.4601H127.318C126.105 29.4601 125.495 29.8591 125.495 30.6571C125.49 30.8354 125.528 31.0124 125.608 31.172C125.688 31.3316 125.807 31.4688 125.953 31.5711C126.327 31.8144 126.77 31.9313 127.216 31.9048C127.712 31.9137 128.201 31.7883 128.632 31.5421V31.5421Z" fill="white"/>
<path d="M142.566 24.3237L138.355 34.0446C138.076 34.855 137.572 35.5695 136.902 36.1048C136.303 36.5167 135.589 36.7276 134.862 36.7069C134.41 36.7067 133.961 36.6332 133.533 36.4893C133.133 36.3665 132.764 36.1586 132.451 35.88L133.33 34.3275C133.539 34.5265 133.786 34.6818 134.056 34.7845C134.32 34.896 134.604 34.9528 134.891 34.9514C135.219 34.9632 135.542 34.8634 135.806 34.6685C136.101 34.4062 136.33 34.0781 136.474 33.7109L136.626 33.3554L132.698 24.3237H134.877L137.687 30.976L140.533 24.3237H142.566Z" fill="white"/>
<path d="M35.7934 22.0096L30.1299 18.7451L25.4684 23.2138L29.7305 27.327L35.7934 23.8304C35.9562 23.7383 36.0912 23.6042 36.1845 23.4422C36.2777 23.2801 36.3257 23.096 36.3235 22.9091C36.3197 22.7264 36.269 22.5477 36.1761 22.3901C36.0833 22.2326 35.9516 22.1016 35.7934 22.0096V22.0096Z" fill="white"/>
<path d="M29.1642 18.1939L22.9343 14.5958L9.26913 7.60254L24.6987 22.503L29.1642 18.1939Z" fill="white"/>
<path d="M9.49422 38.6731L22.956 31.2664L28.7648 27.9149L24.6987 23.9902L9.49422 38.6731Z" fill="white"/>
<path d="M8.35425 8.20459L8.34698 38.303L23.929 23.2429L8.35425 8.20459Z" fill="white"/>
</svg>
