<svg width="46" height="46" viewBox="0 0 46 46" fill="none" xmlns="http://www.w3.org/2000/svg">
<path d="M0.539124 45.4487V0H46.0073V45.4487H0.539124ZM24.1518 14.5088L25.967 14.5523V16.2571H27.7532V14.5886H25.9525V12.6879H27.7024V3.71424H22.3874L22.2567 5.52058H18.7569V7.31241H22.3511V9.11875H18.7641V10.8816L20.5286 10.9759V12.7532H18.7714V16.3804H20.5286L20.5068 18.1359H15.061V20.0221L15.0973 19.9858L13.2531 20.0221V18.2593H4.23495V21.8067H5.99936V25.4701H4.23495V27.1967H5.97033V25.4411H7.85816V27.2184H9.57176L9.68067 25.4411H11.4306V27.2039H16.8618V25.4411H18.706V30.8384H25.967V29.0755H27.8186V34.5671H25.9525V32.8043H24.2244V34.5308H25.9815V38.0927H24.1735L24.101 36.4387H22.3438V40.0079H20.5939V34.5816L22.2494 34.5018V32.8188H18.7496V41.7417H22.322V39.9789H24.2099V41.7562H25.9525L26.0759 39.9789H29.6556V41.7417H31.3837V40.0151H29.583V34.6251H31.4708V38.1217H33.2135L33.3224 36.4387H35.1086V40.0079H33.3441V41.7344H35.0723V39.9789H38.739V41.7417H40.4744V40.0151H38.7173V34.5236H33.2135V30.8964H31.4127V30.9327C31.4127 30.316 31.4127 29.6994 31.4127 29.0828H35.0432L35.1449 27.2692H36.9238V29.0828H38.739V30.9689H35.1086V32.7535H40.4744L40.5761 34.5018H42.2751V30.9617L40.5034 30.8529V29.0755H42.2606V25.4484H38.6882C38.6882 24.8317 38.6882 24.2151 38.6882 23.5985H40.5543V21.8502H42.2679V20.0221H40.5107V18.2665H38.8044V19.9858H40.5543C40.5543 20.6169 40.5543 21.2481 40.6051 21.8792H38.739V23.6638H36.8439V18.252H35.1304L35.0142 20.0293H33.2498V18.2665H31.5217V19.9931H33.2788V21.7631L34.9851 21.8647V25.3903H29.6774L29.583 23.6855L27.804 23.5767V19.9931H29.583V18.2665H27.8549V20.0293H26.0687L25.9525 18.2738H24.2026V21.8429H22.4164L22.322 20.0221H20.5358L20.4923 18.1359H22.322V16.3586H24.1373L24.1518 14.5088ZM4.24222 3.69973V16.2788H16.8327V3.69973H4.24222ZM29.7137 3.69973V16.2788H42.3042V3.69973H29.7137ZM4.24222 29.1481V41.7272H16.8327V29.1481H4.24222Z" fill="white"/>
<path d="M22.3729 40.008V36.4389H24.13L24.2026 38.0929H26.0106V34.531H27.8549V29.0757V29.112H31.4854V29.0757C31.4854 29.6923 31.4854 30.3089 31.4854 30.9255H29.7209V32.6448H31.4563V30.8893H33.2135V34.5165H38.681V40.008H38.7173H35.0505H35.0868V36.4389H33.3006L33.2135 38.1219H31.4999V34.6253H29.583V40.0153H26.0033L25.9525 41.7563H24.2389V39.979H22.322L22.3729 40.008Z" fill="black"/>
<path d="M4.24222 3.69971H16.8327V16.2788H4.24222V3.69971ZM6.03568 14.5087H14.9884V5.52781H6.03568V14.5087Z" fill="black"/>
<path d="M29.7137 3.69971H42.3042V16.2788H29.7137V3.69971ZM40.4744 5.54957H31.5362V14.5087H40.4744V5.54957Z" fill="black"/>
<path d="M4.24222 29.1479H16.8327V41.727H4.24222V29.1479ZM15.061 30.9978H6.07197V39.9352H15.061V30.9978Z" fill="black"/>
<path d="M27.7895 19.993V23.5767L29.5685 23.6855L29.6847 25.4048H34.9924V21.8791L33.2861 21.7631V19.993V20.0293H35.0505L35.1667 18.252H36.844V23.6637H38.7318H38.6955V25.5136H36.844V27.3635H36.8802H35.1013L34.9997 29.177H31.3692V29.2133V27.3489H27.7387V29.1118V29.0755H25.9525L25.9888 29.1118V25.4846H24.1373V23.6347H25.9525V21.8066H24.1953V21.8429V18.2737H25.9525L26.0542 20.0293H27.8404L27.7895 19.993Z" fill="black"/>
<path d="M22.3728 9.11887V7.31253H18.7787V5.5207H22.2784L22.4091 3.71436H27.7242V12.717H25.9525H25.9888V9.08985H22.322L22.3728 9.11887ZM24.2171 7.23273H25.9525V5.54246H24.2462L24.2171 7.23273Z" fill="black"/>
<path d="M15.0611 20.0219V18.1357H20.514H20.4777L20.5213 20.0219H20.5576H18.6915V25.5062H16.8472V23.6273H11.4306V21.8645L13.2531 21.7702V19.9929L15.0973 19.9566V21.7629H16.8255V20.0219H15.0611Z" fill="black"/>
<path d="M25.9525 29.0754V30.8382H18.6915V25.4409H20.5431V27.2618H22.3946V29.1116H26.0251L25.9525 29.0754Z" fill="black"/>
<path d="M22.322 39.9789V41.7417H18.7642V32.8188H22.2639V34.5019L20.6085 34.5817V40.0079H22.3583L22.322 39.9789Z" fill="black"/>
<path d="M5.99936 21.8067H4.23495V18.2593H13.2458V20.0221H5.96307V21.872L5.99936 21.8067Z" fill="black"/>
<path d="M40.5253 29.0757V30.853L42.2969 30.9618V34.4947H40.5979L40.4744 32.7464H35.1231V30.9618H38.7536V29.0757V29.112H40.6051L40.5253 29.0757Z" fill="black"/>
<path d="M5.99936 25.4701V21.8066V21.8429H9.62984L9.73877 23.6565H11.4306V25.5064H9.65889L9.54998 27.2837H7.83638V25.4411H5.94855L5.99936 25.4701Z" fill="black"/>
<path d="M20.514 20.0222H22.322L22.4237 21.843H24.2099V21.8068V23.6566H22.3946V25.5065H20.5431V19.9932L20.514 20.0222Z" fill="black"/>
<path d="M20.5503 12.7531V10.9758L18.7859 10.8815V9.11865H22.3728H22.3365V12.7458H20.5213L20.5503 12.7531Z" fill="black"/>
<path d="M38.71 25.4772H42.2824V29.1044H40.5252V29.1406V27.2618H38.6737V25.4409L38.71 25.4772Z" fill="black"/>
<path d="M16.8836 25.4409V27.2037H11.4306V25.4409H16.9199H16.8836Z" fill="black"/>
<path d="M20.5503 16.3586H18.7932V12.7314H20.5503V16.3949V16.3586Z" fill="black"/>
<path d="M5.97034 25.4409V27.1965H4.23495V25.4699H5.99936L5.97034 25.4409Z" fill="black"/>
<path d="M40.5543 19.9859H38.8044V18.2666H40.5253V20.0222L40.5543 19.9859Z" fill="black"/>
<path d="M40.5252 20.0223H42.2824V21.8504H40.5688C40.5688 21.2193 40.5688 20.5882 40.518 19.957L40.5252 20.0223Z" fill="black"/>
<path d="M38.739 23.664V21.8794H40.6051V23.6567H38.739V23.664Z" fill="black"/>
<path d="M38.739 29.0753H36.9238V27.2617H36.8875H38.739V29.1116V29.0753Z" fill="black"/>
<path d="M33.286 19.9931H31.5289V18.2666H33.257V20.0294L33.286 19.9931Z" fill="black"/>
<path d="M27.8258 20.0294V18.2666H29.583V19.9931H27.8186L27.8258 20.0294Z" fill="black"/>
<path d="M22.322 16.3586V18.1359H20.4559H20.4923L20.5358 16.3296H22.3801L22.322 16.3586Z" fill="black"/>
<path d="M25.9525 14.6173H27.7677V16.2858H25.9525V14.5811V14.6173Z" fill="black"/>
<path d="M24.1518 14.5088V16.3296H22.322V14.516H24.1445L24.1518 14.5088Z" fill="black"/>
<path d="M26.0106 34.5307H24.2534V32.8042H25.9525V34.567L26.0106 34.5307Z" fill="black"/>
<path d="M29.583 40.0153H31.3401V41.7418H29.612V39.979L29.583 40.0153Z" fill="black"/>
<path d="M35.0723 39.979V41.7346H33.3441V40.008H35.1086L35.0723 39.979Z" fill="black"/>
<path d="M25.9525 12.7168C25.9525 13.3552 25.9525 13.9863 25.9525 14.6174L24.1373 14.5739L24.1736 14.6102V12.7531H25.9961L25.9525 12.7168Z" fill="black"/>
<path d="M38.7027 40.0153H40.4744V41.7418H38.7536V39.979L38.7027 40.0153Z" fill="black"/>
<path d="M27.7968 29.1119V27.3491H31.4273V29.1119H27.7968Z" fill="white"/>
<path d="M31.4345 30.8892V32.6447H29.6992V30.9254H31.4636L31.4345 30.8892Z" fill="white"/>
<path d="M6.03568 14.5088V5.52783H14.9884V14.5088H6.03568ZM7.86543 7.37044V12.7024H13.1732V7.33417L7.86543 7.37044Z" fill="white"/>
<path d="M40.4744 5.5498V14.509H31.5362V5.5498H40.4744ZM33.3151 7.34164V12.6591H38.6156V7.34164H33.3151Z" fill="white"/>
<path d="M15.0611 30.998V39.9354H6.07199V30.998H15.0611ZM7.87996 38.1146H13.2168V32.8116H7.87996V38.1146Z" fill="white"/>
<path d="M26.0106 29.1116H22.3801V27.2618H22.3438H24.1953V25.4409H26.0469L26.0106 29.1116Z" fill="white"/>
<path d="M22.3729 25.4773V23.6274H24.1881V25.4773H22.322H22.3729Z" fill="white"/>
<path d="M38.739 27.2908H36.8875V25.4409H38.739V27.2908Z" fill="white"/>
<path d="M24.159 23.6565V21.8066H25.9525V23.6565H24.159Z" fill="white"/>
<path d="M26.0106 12.7534H24.1881V14.5742H22.3656V16.3878H20.5213V12.7244H22.322V9.09717H25.9961L26.0106 12.7534Z" fill="white"/>
<path d="M24.2171 7.25451V5.54248H25.9525V7.25451H24.2171Z" fill="white"/>
<path d="M11.4306 23.6566H9.65889L9.54998 21.843H5.91949V19.9932H13.2313V21.7632L11.4088 21.8575L11.4306 23.6566Z" fill="white"/>
<path d="M20.5503 19.9932V25.4775H18.6915V19.9932H20.5503Z" fill="white"/>
<path d="M16.9126 25.4773H11.4306V23.6274H16.9199L16.9126 25.4773Z" fill="white"/>
<path d="M15.0611 20.0221H16.8255V21.7632H15.0611V19.9858V20.0221Z" fill="white"/>
<path d="M20.5213 25.4409H22.3729H22.3365V27.2908H22.3729H20.5213V25.4409Z" fill="white"/>
<path d="M38.71 29.1116V27.2617H40.5616V29.1116H38.71Z" fill="white"/>
<path d="M7.86545 7.33398H13.1732V12.666H7.86545V7.33398Z" fill="black"/>
<path d="M33.3369 7.34131H38.6374V12.6588H33.3369V7.34131Z" fill="black"/>
<path d="M7.85092 38.1145V32.8115H13.1877V38.1145H7.85092Z" fill="black"/>
<path d="M22.322 27.2908V25.4409H24.1736V27.2908H22.322Z" fill="black"/>
</svg>
